<svg data-v-423bf9ae="" xmlns="http://www.w3.org/2000/svg" viewBox="0 0 250.74158789566502 60" class="font"><!----><!----><!----><g data-v-423bf9ae="" id="e98f6187-1bfb-492f-bffc-bd15e67a6dbf" fill="black" transform="matrix(4.4943822151090735,0,0,4.4943822151090735,-7.101127023243322,-15.865169329168303)"><path d="M7.28 9.34L7.28 9.34Q7.73 9.34 7.99 9.59Q8.25 9.84 8.25 10.29L8.25 10.29Q8.25 10.40 8.23 10.52Q8.22 10.64 8.18 10.72L8.18 10.72Q7.99 10.70 7.77 10.68Q7.55 10.65 7.24 10.65L7.24 10.65Q6.61 10.65 5.98 10.77Q5.35 10.88 4.77 10.95L4.77 10.95Q4.14 12.43 3.74 13.73Q3.33 15.04 3.11 16.31L3.11 16.31Q2.63 16.20 2.27 15.90Q1.90 15.61 1.58 15.08L1.58 15.08Q1.68 14.85 1.82 14.54Q1.96 14.22 2.16 13.74Q2.35 13.26 2.63 12.56Q2.90 11.87 3.28 10.91L3.28 10.91Q2.69 10.71 2.51 10.22L2.51 10.22Q2.58 10.15 2.90 10.06Q3.22 9.97 3.68 9.86L3.68 9.86Q3.89 9.31 4.05 8.88Q4.20 8.46 4.33 8.07Q4.45 7.69 4.56 7.32Q4.66 6.94 4.75 6.52L4.75 6.52L4.68 6.52Q4.14 6.52 3.81 6.27Q3.49 6.02 3.49 5.61L3.49 5.61Q3.49 5.50 3.52 5.35Q3.56 5.19 3.61 5.08L3.61 5.08Q3.88 5.12 4.14 5.14Q4.40 5.15 4.82 5.15L4.82 5.15Q5.70 5.15 6.47 5.10Q7.24 5.05 7.86 5.00Q8.48 4.94 8.93 4.89Q9.38 4.84 9.62 4.84L9.62 4.84Q9.94 4.84 10.19 5.18Q10.44 5.52 10.58 6.13L10.58 6.13Q10.14 6.09 9.86 6.08Q9.59 6.06 9.38 6.06L9.38 6.06Q8.67 6.06 8.07 6.13Q7.48 6.19 6.94 6.27L6.94 6.27Q6.86 6.40 6.75 6.59Q6.65 6.79 6.48 7.15Q6.31 7.50 6.05 8.08Q5.80 8.65 5.40 9.53L5.40 9.53Q5.95 9.45 6.45 9.39Q6.94 9.34 7.28 9.34ZM8.99 14.28L8.99 14.28Q8.99 13.66 9.28 12.55Q9.58 11.44 10.11 9.95L10.11 9.95Q10.98 7.59 11.74 6.01Q12.50 4.44 13.23 3.56L13.23 3.56Q13.40 3.58 13.64 3.70Q13.89 3.81 14.13 3.94Q14.36 4.07 14.55 4.21Q14.74 4.35 14.80 4.44L14.80 4.44Q13.71 5.73 12.88 7.21Q12.05 8.69 11.37 10.61L11.37 10.61Q10.78 12.26 10.47 13.59Q10.16 14.91 10.16 15.79L10.16 15.79Q10.16 16.03 10.16 16.09Q10.16 16.14 10.18 16.20L10.18 16.20Q9.98 16.17 9.84 16.10Q9.70 16.03 9.66 15.93L9.66 15.93Q9.63 15.86 9.51 15.73Q9.38 15.60 9.28 15.53L9.28 15.53Q9.16 15.44 9.07 15.09Q8.99 14.73 8.99 14.28ZM12.32 14.24L12.32 14.24Q12.32 14.11 12.34 13.92Q12.36 13.73 12.42 13.42Q12.47 13.10 12.57 12.66Q12.66 12.21 12.80 11.58L12.80 11.58Q12.82 11.44 12.92 11.13Q13.02 10.82 13.18 10.48Q13.34 10.14 13.57 9.81Q13.80 9.49 14.13 9.34L14.13 9.34Q14.36 9.39 14.76 9.63Q15.15 9.86 15.43 10.26L15.43 10.26Q15.11 10.63 14.89 10.99Q14.67 11.35 14.50 11.75Q14.32 12.14 14.18 12.56Q14.03 12.98 13.85 13.44L13.85 13.44Q13.69 13.83 13.57 14.25Q13.44 14.66 13.43 14.97L13.43 14.97Q13.43 15.22 13.42 15.32Q13.41 15.43 13.34 15.43L13.34 15.43Q13.29 15.43 13.12 15.36Q12.95 15.29 12.78 15.14Q12.60 14.99 12.46 14.77Q12.32 14.55 12.32 14.24ZM14.99 8.16L14.99 8.16Q14.99 8.08 15.04 7.91L15.04 7.91Q14.97 7.84 14.92 7.70Q14.87 7.56 14.87 7.45L14.87 7.45Q14.87 7.32 14.90 7.11Q14.94 6.89 14.99 6.64Q15.05 6.38 15.13 6.11Q15.22 5.84 15.30 5.61L15.30 5.61Q15.47 5.61 15.71 5.71Q15.96 5.80 16.21 5.94Q16.46 6.09 16.67 6.27Q16.88 6.44 17.00 6.59L17.00 6.59Q16.84 6.75 16.59 7.02Q16.34 7.29 16.10 7.59Q15.86 7.90 15.67 8.16Q15.47 8.43 15.41 8.54L15.41 8.54Q15.25 8.51 15.12 8.39Q14.99 8.27 14.99 8.16ZM15.69 12.71L15.69 12.71Q15.69 11.91 16.02 11.16Q16.35 10.42 16.89 9.84Q17.43 9.25 18.12 8.90Q18.82 8.54 19.56 8.54L19.56 8.54Q20.29 8.54 20.68 8.90Q21.07 9.27 21.07 9.94L21.07 9.94Q21.07 10.26 20.98 10.56Q20.89 10.86 20.74 11.10Q20.59 11.34 20.40 11.49Q20.20 11.63 20.01 11.63L20.01 11.63Q19.84 11.63 19.66 11.53Q19.49 11.42 19.38 11.26L19.38 11.26Q20.31 10.40 20.31 9.70L20.31 9.70Q20.31 9.30 19.99 9.30L19.99 9.30Q19.71 9.30 19.29 9.56Q18.87 9.83 18.48 10.26L18.48 10.26Q17.88 10.93 17.56 11.75Q17.25 12.57 17.25 13.47L17.25 13.47Q17.25 14.60 17.75 14.83L17.75 14.83Q17.96 14.80 18.24 14.70Q18.52 14.60 18.84 14.44Q19.17 14.28 19.51 14.07Q19.85 13.86 20.17 13.62L20.17 13.62Q20.23 13.66 20.27 13.75Q20.31 13.83 20.31 13.90L20.31 13.90Q20.08 14.20 19.77 14.48Q19.46 14.76 19.12 14.99Q18.79 15.22 18.47 15.38Q18.16 15.54 17.92 15.58L17.92 15.58Q17.46 15.54 17.05 15.29Q16.65 15.05 16.34 14.66Q16.04 14.27 15.87 13.76Q15.69 13.26 15.69 12.71ZM21.52 13.86L21.52 13.86Q21.52 13.36 21.78 12.46Q22.04 11.56 22.46 10.50Q22.88 9.44 23.41 8.30Q23.94 7.17 24.48 6.19Q25.02 5.21 25.52 4.49Q26.01 3.78 26.36 3.53L26.36 3.53Q26.56 3.54 26.79 3.70Q27.02 3.85 27.22 4.07Q27.41 4.28 27.55 4.52Q27.68 4.76 27.68 4.96L27.68 4.96Q27.05 5.46 26.40 6.25Q25.75 7.04 25.16 7.99Q24.57 8.93 24.07 9.99Q23.58 11.05 23.24 12.07L23.24 12.07Q23.69 11.30 24.18 10.67Q24.67 10.04 25.16 9.59Q25.65 9.14 26.12 8.90Q26.59 8.65 27.01 8.64L27.01 8.64Q27.62 9.09 27.62 9.83L27.62 9.83Q27.62 10.28 27.44 10.73Q27.26 11.19 26.96 11.57Q26.66 11.96 26.27 12.23Q25.89 12.50 25.47 12.59L25.47 12.59Q25.61 13.08 25.82 13.58Q26.04 14.08 26.34 14.56Q26.64 15.04 27.03 15.44Q27.41 15.85 27.90 16.13L27.90 16.13Q27.83 16.27 27.69 16.41Q27.55 16.55 27.36 16.65Q27.16 16.76 26.93 16.82Q26.70 16.88 26.47 16.88L26.47 16.88Q26.10 16.88 25.77 16.51Q25.44 16.13 25.17 15.41L25.17 15.41Q24.96 14.84 24.77 14.04Q24.57 13.24 24.42 12.38L24.42 12.38Q24.61 12.25 24.91 12.00Q25.20 11.76 25.52 11.44L25.52 11.44Q26.75 10.25 26.75 9.38L26.75 9.38Q26.75 9.27 26.60 9.27L26.60 9.27Q26.32 9.28 25.94 9.53Q25.56 9.79 25.14 10.23Q24.71 10.68 24.27 11.28Q23.83 11.89 23.42 12.59L23.42 12.59Q23.25 12.87 23.11 13.23Q22.97 13.59 22.87 13.98Q22.76 14.36 22.71 14.74Q22.65 15.12 22.65 15.44L22.65 15.44Q22.65 15.64 22.69 15.76L22.69 15.76Q22.26 15.72 22.16 15.54L22.16 15.54Q22.05 15.37 21.97 15.27Q21.90 15.16 21.81 15.09L21.81 15.09Q21.69 14.99 21.60 14.67Q21.52 14.35 21.52 13.86ZM33.39 9.38L33.39 9.38Q33.33 10.25 33.08 10.87Q32.83 11.49 32.36 11.96Q31.89 12.43 31.22 12.81Q30.55 13.19 29.65 13.54L29.65 13.54Q29.65 13.62 29.65 13.71Q29.64 13.80 29.64 13.90L29.64 13.90Q29.64 14.08 29.67 14.28Q29.69 14.48 29.76 14.64Q29.83 14.81 29.96 14.92Q30.09 15.02 30.28 15.02L30.28 15.02Q30.66 15.02 31.02 14.85Q31.39 14.69 31.72 14.44Q32.05 14.20 32.33 13.91Q32.62 13.62 32.84 13.38L32.84 13.38Q32.98 13.51 33.08 13.62L33.08 13.62Q32.45 14.46 31.70 15.02Q30.95 15.57 30.28 15.72L30.28 15.72Q29.32 15.61 28.78 15.02Q28.24 14.42 28.24 13.58L28.24 13.58Q28.24 13.01 28.40 12.41Q28.56 11.82 28.85 11.26Q29.13 10.71 29.52 10.22Q29.90 9.73 30.35 9.37Q30.79 9.00 31.26 8.79Q31.72 8.58 32.19 8.58L32.19 8.58Q32.83 8.67 33.39 9.38ZM32.42 9.84L32.42 9.84Q32.05 9.90 31.64 10.15Q31.23 10.40 30.88 10.82Q30.52 11.24 30.23 11.80Q29.93 12.36 29.76 13.01L29.76 13.01Q30.88 12.45 31.63 11.63Q32.37 10.81 32.42 9.84ZM33.70 14.90L33.70 14.90Q33.77 14.49 33.94 13.82Q34.12 13.16 34.36 12.41Q34.59 11.66 34.86 10.91Q35.13 10.15 35.38 9.55L35.38 9.55Q35.56 9.11 35.70 8.87Q35.84 8.62 36.01 8.46L36.01 8.46Q36.20 8.48 36.41 8.55Q36.62 8.62 36.82 8.72Q37.02 8.82 37.17 8.93Q37.32 9.03 37.41 9.13L37.41 9.13Q37.03 9.58 36.74 10.15Q36.46 10.72 36.16 11.62L36.16 11.62Q36.92 10.95 37.50 10.33Q38.08 9.72 38.58 8.96L38.58 8.96Q38.67 8.89 38.88 8.89L38.88 8.89Q39.07 8.89 39.26 8.95Q39.44 9.02 39.51 9.13L39.51 9.13Q39.26 9.80 39.26 10.46L39.26 10.46Q39.26 11.07 39.44 11.38L39.44 11.38Q39.42 11.47 39.25 11.70Q39.07 11.94 38.86 12.15L38.86 12.15Q38.49 11.96 38.19 11.61Q37.90 11.27 37.76 10.86L37.76 10.86Q37.10 11.33 36.64 11.77Q36.18 12.21 35.85 12.75Q35.52 13.29 35.29 13.99Q35.06 14.69 34.85 15.65L34.85 15.65Q34.72 15.64 34.55 15.56Q34.37 15.48 34.20 15.37Q34.02 15.26 33.88 15.13Q33.74 15.01 33.70 14.90ZM44.51 9.52L44.51 9.52Q44.65 9.52 44.84 9.57Q45.02 9.62 45.18 9.70Q45.33 9.77 45.44 9.86Q45.54 9.94 45.54 10.01L45.54 10.01Q45.26 10.60 45.02 11.19Q44.79 11.79 44.62 12.33Q44.45 12.88 44.36 13.36Q44.27 13.83 44.27 14.18L44.27 14.18Q44.27 14.57 44.35 14.83Q44.44 15.09 44.63 15.20L44.63 15.20Q44.46 15.32 44.20 15.39Q43.93 15.46 43.72 15.46L43.72 15.46Q42.97 15.46 42.97 14.42L42.97 14.42Q42.97 13.62 43.50 12.24L43.50 12.24Q43.22 12.88 42.85 13.45Q42.49 14.01 42.11 14.45Q41.73 14.88 41.35 15.15Q40.96 15.43 40.64 15.48L40.64 15.48Q40.12 15.46 39.80 14.99Q39.48 14.52 39.48 13.79L39.48 13.79Q39.48 13.01 39.82 12.14Q40.15 11.27 40.68 10.53Q41.20 9.79 41.82 9.29Q42.43 8.79 43.01 8.76L43.01 8.76Q43.15 8.81 43.32 8.93Q43.50 9.06 43.66 9.23Q43.82 9.39 43.93 9.57Q44.04 9.74 44.06 9.87L44.06 9.87Q43.50 9.95 42.90 10.42Q42.31 10.88 41.83 11.53Q41.34 12.18 41.03 12.92Q40.73 13.66 40.73 14.31L40.73 14.31Q40.73 14.57 40.92 14.64L40.92 14.64Q41.33 14.56 41.86 13.95Q42.39 13.34 43.15 12.07L43.15 12.07Q43.29 11.82 43.46 11.51Q43.64 11.20 43.82 10.86Q44.00 10.53 44.18 10.18Q44.35 9.84 44.51 9.52ZM46.86 10.22L46.86 10.22Q46.86 9.97 46.89 9.74Q46.93 9.52 47.04 9.36Q47.15 9.20 47.35 9.11Q47.54 9.02 47.87 9.02L47.87 9.02Q48.06 9.02 48.31 9.06Q48.55 9.10 48.66 9.21L48.66 9.21Q48.61 9.45 48.57 9.63Q48.54 9.81 48.52 10.03Q48.50 10.25 48.48 10.55Q48.47 10.85 48.45 11.33L48.45 11.33Q48.43 12.28 48.36 13.03Q48.30 13.78 48.08 14.52L48.08 14.52Q48.08 14.57 48.12 14.57L48.12 14.57Q48.33 14.42 48.59 14.13Q48.86 13.83 49.15 13.46Q49.45 13.09 49.74 12.67Q50.04 12.25 50.29 11.84L50.29 11.84Q50.62 11.26 51.03 10.37Q51.44 9.49 51.70 8.48L51.70 8.48Q51.79 8.48 51.92 8.52Q52.05 8.55 52.19 8.60Q52.32 8.65 52.42 8.71Q52.53 8.76 52.57 8.81L52.57 8.81Q52.54 9.41 52.28 10.04Q52.02 10.67 51.66 11.26Q51.30 11.84 50.89 12.36Q50.48 12.88 50.15 13.26L50.15 13.26Q49.48 14.04 48.80 14.66Q48.12 15.27 47.18 15.85L47.18 15.85Q46.82 15.71 46.61 15.48Q46.40 15.25 46.40 14.99L46.40 14.99Q46.40 14.83 46.47 14.61Q46.55 14.39 46.65 14.05Q46.75 13.71 46.82 13.19Q46.90 12.67 46.90 11.87L46.90 11.87Q46.90 11.41 46.88 10.94Q46.86 10.47 46.86 10.22ZM57.37 9.38L57.37 9.38Q57.32 10.25 57.06 10.87Q56.81 11.49 56.34 11.96Q55.87 12.43 55.20 12.81Q54.53 13.19 53.63 13.54L53.63 13.54Q53.63 13.62 53.63 13.71Q53.62 13.80 53.62 13.90L53.62 13.90Q53.62 14.08 53.65 14.28Q53.68 14.48 53.75 14.64Q53.82 14.81 53.94 14.92Q54.07 15.02 54.26 15.02L54.26 15.02Q54.64 15.02 55.01 14.85Q55.37 14.69 55.70 14.44Q56.03 14.20 56.32 13.91Q56.60 13.62 56.83 13.38L56.83 13.38Q56.97 13.51 57.06 13.62L57.06 13.62Q56.43 14.46 55.69 15.02Q54.94 15.57 54.26 15.72L54.26 15.72Q53.30 15.61 52.76 15.02Q52.22 14.42 52.22 13.58L52.22 13.58Q52.22 13.01 52.38 12.41Q52.54 11.82 52.83 11.26Q53.12 10.71 53.50 10.22Q53.89 9.73 54.33 9.37Q54.77 9.00 55.24 8.79Q55.71 8.58 56.17 8.58L56.17 8.58Q56.81 8.67 57.37 9.38ZM56.41 9.84L56.41 9.84Q56.03 9.90 55.62 10.15Q55.22 10.40 54.86 10.82Q54.50 11.24 54.21 11.80Q53.91 12.36 53.75 13.01L53.75 13.01Q54.87 12.45 55.61 11.63Q56.35 10.81 56.41 9.84Z"></path></g><!----><!----></svg>